<?xml version="1.0" encoding="utf-8"?>
<!-- Generator: Adobe Illustrator 17.1.0, SVG Export Plug-In . SVG Version: 6.00 Build 0)  -->
<!DOCTYPE svg PUBLIC "-//W3C//DTD SVG 1.1//EN" "http://www.w3.org/Graphics/SVG/1.1/DTD/svg11.dtd">
<svg version="1.1" id="Camada_1" xmlns="http://www.w3.org/2000/svg" xmlns:xlink="http://www.w3.org/1999/xlink" x="0px" y="0px"
	 viewBox="0 0 96.279 96.279" enable-background="new 0 0 96.279 96.279" xml:space="preserve">
<path id="XMLID_67_" fill="#87C720" d="M92.81,42.95c-0.014-0.001-0.028-0.003-0.042-0.004c-1.351-0.131-2.609,0.253-3.601,0.98
	c-2.014,1.475-4.391,2.375-6.887,2.375h-4.023c-1.421,0-2.647-1.025-2.866-2.429c-0.096-0.619-0.213-1.23-0.349-1.835
	c-0.331-1.467,0.624-2.909,2.102-3.185c1.454-0.272,3.122-0.494,4.089-0.322c0.78,0.139,1.607,0.065,2.394-0.258
	c0.211-0.087,0.412-0.188,0.602-0.302c1.353-0.817,1.845-2.547,1.246-4.009l-0.819-1.999c-0.623-1.52-2.295-2.321-3.869-1.854
	l-0.034,0.01c-1.089,0.327-1.939,1.029-2.471,1.911c-0.481,0.798-1.63,1.764-2.729,2.574c-1.249,0.92-3.016,0.559-3.822-0.765
	c-0.332-0.546-0.683-1.08-1.052-1.6c-0.81-1.144-0.654-2.712,0.338-3.703l3.17-3.17c1.714-1.714,3.923-2.79,6.288-3.32
	c0.932-0.209,1.817-0.676,2.543-1.401c0.171-0.172,0.328-0.352,0.471-0.54c1.172-1.544,0.956-3.737-0.415-5.108l-1.789-1.789
	c-1.411-1.411-3.676-1.577-5.228-0.322c-0.011,0.009-0.022,0.018-0.033,0.027c-1.059,0.871-1.678,2.048-1.859,3.276
	c-0.355,2.412-1.355,4.683-3.079,6.406l-2.952,2.952c-1.006,1.005-2.598,1.145-3.746,0.306c-0.502-0.367-1.017-0.717-1.545-1.05
	c-1.27-0.802-1.612-2.497-0.763-3.736c0.836-1.221,1.86-2.559,2.665-3.121c0.649-0.453,1.182-1.09,1.511-1.875
	c0.088-0.21,0.158-0.423,0.211-0.638c0.379-1.535-0.495-3.107-1.953-3.717l-1.993-0.834c-1.515-0.634-3.263-0.018-4.047,1.425
	l-0.017,0.031c-0.538,1.002-0.644,2.099-0.396,3.099c0.224,0.905,0.095,2.4-0.11,3.75c-0.233,1.535-1.739,2.527-3.247,2.16
	c-0.617-0.15-1.243-0.28-1.875-0.388c-1.381-0.236-2.376-1.457-2.376-2.857v-4.483c0-2.424,0.801-4.747,2.099-6.794
	c0.511-0.807,0.807-1.763,0.807-2.789c0-0.244-0.017-0.483-0.049-0.718C53.046,1.395,51.342,0,49.405,0l-2.531,0
	c-1.996,0-3.715,1.484-3.924,3.469c-0.002,0.014-0.003,0.028-0.004,0.042c-0.131,1.351,0.253,2.609,0.98,3.601
	c1.475,2.014,2.375,4.391,2.375,6.887v4.023c0,1.421-1.025,2.647-2.429,2.866c-0.619,0.096-1.23,0.213-1.835,0.349
	c-1.467,0.331-2.909-0.623-3.185-2.101c-0.272-1.454-0.494-3.122-0.322-4.089c0.139-0.78,0.065-1.607-0.258-2.394
	c-0.078-0.189-0.167-0.37-0.267-0.542c-0.808-1.386-2.551-1.917-4.035-1.309l-2.007,0.823c-1.52,0.623-2.321,2.295-1.855,3.869
	l0.01,0.034c0.328,1.089,1.029,1.939,1.911,2.471c0.798,0.481,1.764,1.63,2.574,2.729c0.92,1.249,0.559,3.016-0.765,3.822
	c-0.546,0.332-1.08,0.683-1.601,1.052c-1.144,0.81-2.712,0.654-3.703-0.338l-3.17-3.17c-1.714-1.714-2.79-3.923-3.32-6.288
	c-0.209-0.932-0.676-1.818-1.401-2.543c-0.172-0.171-0.352-0.328-0.54-0.471c-1.544-1.172-3.737-0.956-5.108,0.415l-1.84,1.84
	c-1.408,1.408-1.519,3.654-0.257,5.194l0.013,0.015c0.871,1.059,2.048,1.678,3.276,1.859c2.412,0.355,4.682,1.355,6.406,3.079
	l2.952,2.952c1.006,1.006,1.145,2.598,0.307,3.746c-0.367,0.502-0.717,1.017-1.05,1.545c-0.802,1.27-2.497,1.612-3.736,0.763
	c-1.221-0.836-2.559-1.86-3.121-2.665c-0.453-0.649-1.09-1.182-1.875-1.511c-0.211-0.088-0.425-0.159-0.641-0.212
	c-1.534-0.378-3.104,0.498-3.714,1.955l-0.834,1.992c-0.634,1.515-0.018,3.264,1.425,4.047l0.031,0.017
	c1.002,0.538,2.099,0.644,3.099,0.396c0.905-0.224,2.4-0.095,3.75,0.11c1.535,0.233,2.527,1.739,2.16,3.247
	c-0.15,0.617-0.28,1.243-0.388,1.875c-0.236,1.381-1.457,2.376-2.857,2.376h-4.483c-2.424,0-4.747-0.801-6.794-2.099
	c-0.807-0.511-1.763-0.807-2.789-0.807c-0.244,0-0.483,0.017-0.718,0.049C1.395,43.234,0,44.937,0,46.875v2.531
	c0,1.996,1.484,3.715,3.469,3.924c0.014,0.002,0.028,0.003,0.042,0.004c1.351,0.131,2.609-0.253,3.601-0.98
	c2.014-1.475,4.391-2.375,6.887-2.375h4.023c1.421,0,2.647,1.025,2.866,2.429c0.096,0.619,0.213,1.23,0.349,1.835
	c0.331,1.467-0.623,2.909-2.101,3.185c-1.454,0.272-3.122,0.494-4.089,0.322c-0.78-0.139-1.607-0.065-2.394,0.258
	c-0.212,0.087-0.413,0.188-0.603,0.303c-1.352,0.817-1.845,2.544-1.246,4.006c0.249,0.608,0.541,1.32,0.82,2.002
	c0.623,1.52,2.294,2.32,3.869,1.854l0.034-0.01c1.089-0.327,1.939-1.029,2.471-1.911c0.481-0.798,1.63-1.764,2.729-2.574
	c1.248-0.92,3.016-0.559,3.822,0.765c0.332,0.546,0.683,1.08,1.052,1.601c0.81,1.144,0.654,2.712-0.338,3.703l-3.17,3.17
	c-1.714,1.714-3.923,2.79-6.288,3.32c-0.932,0.209-1.817,0.676-2.543,1.401c-0.172,0.172-0.329,0.353-0.472,0.541
	c-1.171,1.544-0.955,3.734,0.415,5.105l1.971,1.971c1.356,1.356,3.499,1.406,4.984,0.193c0.032-0.026,0.064-0.052,0.096-0.078
	c1.059-0.871,1.678-2.048,1.859-3.276c0.355-2.412,1.355-4.683,3.079-6.406l2.952-2.952c1.006-1.006,2.598-1.145,3.746-0.306
	c0.502,0.367,1.017,0.717,1.545,1.05c1.27,0.802,1.612,2.497,0.763,3.736c-0.836,1.221-1.859,2.559-2.665,3.121
	c-0.649,0.453-1.182,1.09-1.511,1.875c-0.088,0.21-0.158,0.423-0.211,0.638c-0.379,1.535,0.495,3.107,1.953,3.717l1.992,0.834
	c1.515,0.634,3.264,0.019,4.048-1.424l0.017-0.031c0.538-1.002,0.644-2.099,0.396-3.099c-0.224-0.905-0.095-2.4,0.11-3.75
	c0.233-1.535,1.739-2.527,3.247-2.16c0.617,0.15,1.243,0.28,1.875,0.388c1.381,0.236,2.376,1.457,2.376,2.857v4.483
	c0,2.424-0.801,4.747-2.099,6.794c-0.511,0.807-0.807,1.763-0.807,2.789c0,0.244,0.017,0.483,0.049,0.718
	c0.264,1.92,1.967,3.315,3.905,3.315l2.531,0c1.996,0,3.715-1.484,3.924-3.469c0.001-0.014,0.003-0.028,0.004-0.042
	c0.131-1.351-0.253-2.609-0.98-3.601c-1.475-2.014-2.375-4.391-2.375-6.887v-4.022c0-1.421,1.025-2.647,2.429-2.866
	c0.619-0.096,1.23-0.213,1.835-0.349c1.467-0.331,2.909,0.624,3.185,2.102c0.272,1.454,0.494,3.123,0.322,4.089
	c-0.139,0.78-0.065,1.607,0.258,2.394c0.087,0.211,0.188,0.412,0.302,0.602c0.817,1.353,2.547,1.845,4.009,1.246l1.998-0.819
	c1.52-0.623,2.321-2.295,1.854-3.869l-0.01-0.034c-0.327-1.089-1.029-1.939-1.911-2.471c-0.798-0.481-1.764-1.63-2.574-2.729
	c-0.92-1.248-0.559-3.016,0.765-3.822c0.546-0.332,1.08-0.683,1.6-1.052c1.144-0.81,2.712-0.654,3.703,0.338l3.17,3.17
	c1.714,1.714,2.79,3.923,3.32,6.288c0.209,0.932,0.676,1.817,1.401,2.543c0.171,0.171,0.352,0.328,0.54,0.471
	c1.544,1.172,3.737,0.956,5.108-0.415l1.84-1.84c1.408-1.408,1.519-3.654,0.257-5.194l-0.013-0.015
	c-0.871-1.059-2.048-1.678-3.276-1.859c-2.412-0.355-4.682-1.355-6.406-3.079l-2.952-2.952c-1.006-1.006-1.145-2.598-0.307-3.746
	c0.367-0.502,0.717-1.017,1.05-1.545c0.802-1.27,2.497-1.612,3.736-0.763c1.221,0.836,2.559,1.86,3.121,2.665
	c0.453,0.649,1.09,1.182,1.875,1.511c0.21,0.088,0.423,0.158,0.638,0.211c1.535,0.379,3.107-0.495,3.717-1.953l0.835-1.995
	c0.634-1.514,0.018-3.263-1.426-4.045l-0.031-0.017c-1.001-0.538-2.099-0.644-3.099-0.396c-0.905,0.224-2.4,0.095-3.75-0.11
	c-1.535-0.233-2.527-1.739-2.16-3.247c0.15-0.617,0.28-1.243,0.388-1.875c0.236-1.381,1.457-2.376,2.857-2.376h4.483
	c2.424,0,4.747,0.801,6.794,2.099c0.807,0.511,1.763,0.807,2.789,0.807c0.244,0,0.483-0.017,0.718-0.049
	c1.919-0.264,3.315-1.967,3.315-3.905v-2.53C96.279,44.878,94.795,43.16,92.81,42.95z"/>
<g id="XMLID_3_">
	<circle id="XMLID_1_" fill="#FFFFFF" cx="36.475" cy="38.716" r="3.154"/>
	<circle id="XMLID_7_" fill="#FFFFFF" cx="46.433" cy="63.124" r="3.154"/>
	<circle id="XMLID_6_" fill="#FFFFFF" cx="48.643" cy="49.198" r="3.154"/>
	<circle id="XMLID_10_" fill="#FFFFFF" cx="59.751" cy="58.192" r="3.154"/>
	<circle id="XMLID_9_" fill="#FFFFFF" cx="63.787" cy="46.708" r="3.154"/>
	<circle id="XMLID_5_" fill="#FFFFFF" cx="35.632" cy="53.536" r="3.997"/>
	<circle id="XMLID_8_" fill="#FFFFFF" cx="51.372" cy="35.563" r="3.997"/>
</g>
<g>
</g>
<g>
</g>
<g>
</g>
<g>
</g>
<g>
</g>
<g>
</g>
</svg>
